<?xml version="1.0" encoding="UTF-8"?><svg id="Ebene_2" xmlns="http://www.w3.org/2000/svg" viewBox="0 0 655.13 65.91"><g id="Logo_Positiv"><g id="Deutschland"><path fill="#ffffff" d="m323.7,46.87l-.52,2.62h-9.44l8.92-41.71,9.71-1.31-7.87,36.79c1.22.88,2.47,1.31,3.74,1.31,2.49,0,4.69-1.44,6.59-4.33,1.9-2.89,3.38-6.56,4.43-11.02,1.05-4.46,1.57-8.96,1.57-13.51,0-4.28-.84-7.42-2.52-9.41-1.68-1.99-4.03-2.98-7.05-2.98-3.28,0-6.22.65-8.82,1.93-2.6,1.29-4.65,3.14-6.13,5.54-1.49,2.4-2.23,5.22-2.23,8.46,0,1.62.15,2.74.46,3.38.31.63.46,1,.46,1.08-2.27,0-4.01-.48-5.21-1.44-1.2-.96-1.8-2.51-1.8-4.66,0-2.97,1.11-5.79,3.34-8.46,2.23-2.67,5.21-4.81,8.95-6.43,3.74-1.62,7.77-2.43,12.1-2.43,5.99,0,10.4,1.77,13.25,5.31,2.84,3.54,4.26,8.07,4.26,13.57,0,4.98-.84,9.89-2.52,14.72-1.68,4.83-3.92,8.78-6.72,11.84-2.8,3.06-5.77,4.59-8.92,4.59-2.62,0-5.29-1.16-8-3.48Z"/><path fill="#ffffff" d="m355.44,47.36c-1.79-1.68-2.69-4.32-2.69-7.9,0-3.02.59-6.34,1.77-9.97,1.18-3.63,3.1-6.76,5.77-9.41,2.67-2.64,6.05-3.97,10.16-3.97,4.81,0,7.21,2.1,7.21,6.3,0,2.45-.7,4.7-2.1,6.75-1.4,2.06-3.26,3.71-5.57,4.95-2.32,1.25-4.79,1.96-7.41,2.13-.09,1.31-.13,2.19-.13,2.62,0,2.14.37,3.6,1.11,4.36.74.77,1.95,1.15,3.61,1.15,2.36,0,4.38-.55,6.07-1.64,1.68-1.09,3.53-2.75,5.54-4.98h2.23c-4.85,8.09-10.86,12.13-18.03,12.13-3.24,0-5.75-.84-7.54-2.52Zm12.3-15.97c1.46-1.05,2.64-2.38,3.54-4,.9-1.62,1.34-3.32,1.34-5.12s-.55-2.69-1.64-2.69c-1.57,0-3.12,1.38-4.62,4.13s-2.59,5.88-3.25,9.38c1.62-.09,3.16-.66,4.62-1.71Z"/><path fill="#ffffff" d="m382.75,47.92c-1.29-1.31-1.93-3.28-1.93-5.9,0-1.09.17-2.51.52-4.26l4.46-21.05h9.44l-4.72,22.3c-.13.66-.2,1.27-.2,1.84,0,1.79.66,2.69,1.97,2.69,1.22,0,2.27-.51,3.15-1.54.87-1.03,1.57-2.44,2.1-4.23l4.46-21.05h9.44l-4.72,22.3c-.17.66-.26,1.36-.26,2.1,0,.88.21,1.5.62,1.87.41.37,1.1.56,2.07.56,1.22,0,2.28-.52,3.18-1.57.9-1.05,1.61-2.45,2.13-4.2h2.75c-1.62,4.72-3.62,7.92-6,9.61-2.38,1.68-4.78,2.52-7.18,2.52-1.88,0-3.38-.52-4.49-1.57-1.12-1.05-1.78-2.6-2-4.66-1.49,2.4-3.05,4.04-4.69,4.92-1.64.88-3.31,1.31-5.02,1.31-2.1,0-3.79-.66-5.08-1.97Z"/><path fill="#ffffff" d="m418.43,47.92c-1.29-1.31-1.93-3.28-1.93-5.9,0-1.09.17-2.51.52-4.26l3.93-18.43h-2.16l.52-2.62h2.16l1.97-9.05,9.71-1.31-2.23,10.36h3.93l-.52,2.62h-3.94l-4.2,19.67c-.17.66-.26,1.36-.26,2.1,0,.88.21,1.5.62,1.87.42.37,1.1.56,2.07.56,1.27,0,2.45-.53,3.54-1.61,1.09-1.07,1.88-2.46,2.36-4.16h2.75c-1.62,4.72-3.7,7.92-6.23,9.61-2.54,1.68-5.05,2.52-7.54,2.52-2.1,0-3.79-.66-5.08-1.97Z"/><path fill="#ffffff" d="m439.25,48.68c-1.44-.81-2.51-1.86-3.21-3.15-.7-1.29-1.05-2.63-1.05-4.03s.34-2.7,1.02-3.77c.68-1.07,1.5-1.85,2.46-2.33,1.71-3.06,3.19-6.15,4.46-9.28,1.27-3.13,2.47-6.5,3.61-10.13l9.71-1.31c.22,5.6.59,11.65,1.11,18.17.22,2.62.33,4.52.33,5.71,0,1.01-.09,1.84-.26,2.49,2.06-1.18,3.63-2.27,4.72-3.28h2.75c-2.8,3.24-6.14,5.97-10.03,8.2-1.27,1.36-2.83,2.35-4.69,2.98s-3.73.95-5.61.95c-2.1,0-3.87-.4-5.31-1.21Zm7.28-5.41c1.09-.96,1.64-2.51,1.64-4.66,0-1.31-.13-3.15-.39-5.51-.44-4.98-.72-8.33-.85-10.03-1.05,3.45-2.82,7.59-5.31,12.39,1.01.52,1.51,1.29,1.51,2.29,0,.83-.27,1.57-.82,2.23s-1.23.98-2.07.98c-.92,0-1.51-.28-1.77-.85,0,1.57.32,2.73.95,3.48.63.74,1.65,1.11,3.05,1.11,1.62,0,2.97-.48,4.07-1.44Z"/><path fill="#ffffff" d="m466.53,47.36c-1.79-1.68-2.69-4.32-2.69-7.9,0-3.02.6-6.34,1.8-9.97,1.2-3.63,3.12-6.76,5.77-9.41,2.64-2.64,6-3.97,10.07-3.97,2.62,0,4.49.57,5.61,1.71,1.11,1.14,1.67,2.58,1.67,4.33,0,1.53-.33,2.71-.98,3.54-.66.83-1.49,1.25-2.49,1.25-.74,0-1.51-.26-2.29-.79.52-1.44.79-2.73.79-3.87,0-.83-.15-1.49-.46-1.97-.31-.48-.77-.72-1.38-.72-1.31,0-2.62,1.07-3.94,3.21-1.31,2.14-2.38,4.74-3.21,7.8-.83,3.06-1.25,5.81-1.25,8.26,0,2.14.37,3.6,1.11,4.36.74.77,1.95,1.15,3.61,1.15,2.36,0,4.38-.55,6.07-1.64,1.68-1.09,3.53-2.75,5.54-4.98h2.23c-4.85,8.09-10.86,12.13-18.03,12.13-3.24,0-5.75-.84-7.54-2.52Z"/><path fill="#ffffff" d="m510.23,47.76c-1.25-1.42-1.87-3.18-1.87-5.28,0-.92.11-1.96.33-3.12.22-1.16.45-2.28.69-3.38.24-1.09.4-1.79.49-2.1.35-1.53.68-3.04.98-4.52.3-1.49.46-2.69.46-3.61,0-2.23-.79-3.34-2.36-3.34-1.14,0-2.14.56-3.02,1.67-.87,1.11-1.57,2.57-2.1,4.36l-4.46,21.05h-9.44l9.51-44.59,9.71-1.31-3.54,16.53c2.19-2.45,4.74-3.67,7.67-3.67,2.23,0,4,.61,5.31,1.84,1.31,1.22,1.97,3.08,1.97,5.57,0,1.27-.15,2.68-.46,4.23-.31,1.55-.74,3.44-1.31,5.67-.35,1.36-.67,2.68-.95,3.97-.28,1.29-.43,2.31-.43,3.05,0,.88.2,1.55.59,2.03.39.48,1.07.72,2.03.72,1.31,0,2.36-.47,3.15-1.41.79-.94,1.57-2.39,2.36-4.36h2.75c-1.62,4.81-3.49,8.03-5.61,9.67-2.12,1.64-4.32,2.46-6.59,2.46-2.67,0-4.62-.71-5.87-2.13Z"/><path fill="#ffffff" d="m529.51,47.92c-1.29-1.31-1.93-3.28-1.93-5.9,0-1.09.17-2.51.52-4.26l7.02-32.85,9.71-1.31-7.54,35.41c-.17.66-.26,1.36-.26,2.1,0,.88.21,1.5.62,1.87.42.37,1.1.56,2.07.56,1.27,0,2.45-.53,3.54-1.61,1.09-1.07,1.88-2.46,2.36-4.16h2.75c-1.62,4.72-3.7,7.92-6.23,9.61-2.54,1.68-5.05,2.52-7.54,2.52-2.1,0-3.79-.66-5.08-1.97Z"/><path fill="#ffffff" d="m549.81,47.33c-1.66-1.71-2.49-4.37-2.49-8,0-3.24.65-6.63,1.93-10.2,1.29-3.56,3.21-6.58,5.77-9.05,2.56-2.47,5.61-3.71,9.15-3.71,1.79,0,3.13.31,4,.92.87.61,1.31,1.42,1.31,2.43v.46l.72-3.48h9.44l-4.72,22.3c-.17.66-.26,1.36-.26,2.1,0,1.88.9,2.82,2.69,2.82,1.22,0,2.28-.57,3.18-1.71.9-1.14,1.61-2.62,2.13-4.46h2.75c-1.62,4.72-3.62,7.92-6,9.61-2.38,1.68-4.78,2.52-7.18,2.52-1.84,0-3.31-.51-4.43-1.54-1.11-1.03-1.78-2.52-2-4.49-1.27,1.79-2.68,3.25-4.23,4.36-1.55,1.11-3.4,1.67-5.54,1.67-2.49,0-4.57-.85-6.23-2.56Zm13.74-5.34c1.07-1.03,1.8-2.44,2.2-4.23l3.15-14.82c0-.57-.22-1.13-.66-1.67-.44-.55-1.11-.82-2.03-.82-1.75,0-3.32,1.02-4.72,3.05s-2.49,4.48-3.28,7.34c-.79,2.86-1.18,5.39-1.18,7.57s.32,3.59.95,4.2c.63.61,1.41.92,2.33.92,1.09,0,2.17-.51,3.25-1.54Z"/><path fill="#ffffff" d="m603.03,47.76c-1.25-1.42-1.87-3.18-1.87-5.28,0-.92.11-1.96.33-3.12.22-1.16.45-2.28.69-3.38.24-1.09.4-1.79.49-2.1.35-1.53.68-3.04.98-4.52.3-1.49.46-2.69.46-3.61,0-2.23-.79-3.34-2.36-3.34-1.14,0-2.14.56-3.02,1.67-.87,1.11-1.57,2.57-2.1,4.36l-4.46,21.05h-9.44l6.95-32.79h9.44l-.72,3.41c2.19-2.45,4.74-3.67,7.67-3.67,2.23,0,4,.61,5.31,1.84,1.31,1.22,1.97,3.08,1.97,5.57,0,1.27-.15,2.68-.46,4.23-.31,1.55-.74,3.44-1.31,5.67-.35,1.36-.67,2.68-.95,3.97-.28,1.29-.43,2.31-.43,3.05,0,.88.2,1.55.59,2.03.39.48,1.07.72,2.03.72,1.31,0,2.36-.47,3.15-1.41.79-.94,1.57-2.39,2.36-4.36h2.75c-1.62,4.81-3.49,8.03-5.61,9.67-2.12,1.64-4.32,2.46-6.59,2.46-2.67,0-4.62-.71-5.87-2.13Z"/><path fill="#ffffff" d="m622.54,47.33c-1.66-1.71-2.49-4.37-2.49-8,0-3.24.65-6.63,1.93-10.2,1.29-3.56,3.21-6.58,5.77-9.05,2.56-2.47,5.61-3.71,9.15-3.71,1.79,0,3.13.31,4,.92.87.61,1.31,1.42,1.31,2.43v.26l3.21-15.08,9.71-1.31-7.54,35.41c-.17.66-.26,1.29-.26,1.9,0,1.75.9,2.62,2.69,2.62.79,0,1.49-.13,2.1-.39-.17,2.19-.95,3.86-2.33,5.02-1.38,1.16-3.01,1.74-4.89,1.74-1.75,0-3.23-.45-4.43-1.34-1.2-.9-2-2.26-2.39-4.1-2.62,3.63-5.73,5.44-9.31,5.44-2.49,0-4.57-.85-6.23-2.56Zm13.41-5.05c.98-.83,1.71-1.99,2.2-3.48l.26-1.05,3.21-15.02c-.39-1.53-1.29-2.3-2.69-2.3-1.75,0-3.32,1.02-4.72,3.05s-2.49,4.48-3.28,7.34c-.79,2.86-1.18,5.39-1.18,7.57s.32,3.59.95,4.2c.63.61,1.41.92,2.33.92s1.93-.41,2.92-1.25Z"/></g><g id="Sterntaufe"><g><path fill="#32b3e8" d="m11.39,49.25c-2.1-.96-3.72-2.31-4.85-4.03-1.14-1.73-1.71-3.73-1.71-6,0-1.92.4-3.67,1.21-5.25.81-1.57,1.9-2.82,3.28-3.74,1.38-.92,2.9-1.38,4.56-1.38,1.53,0,2.82.38,3.87,1.15,1.05.77-2.12,3.78-3.48,4.98-1.36,1.2-2.03,2.83-2.03,4.89,0,1.88.57,3.39,1.7,4.52,1.14,1.14,2.64,1.71,4.52,1.71,2.32,0,4.23-.78,5.74-2.33,1.51-1.55,2.26-3.51,2.26-5.87,0-2.05-.57-4-1.71-5.84-1.14-1.84-2.84-4.07-5.12-6.69-2.36-2.71-4.14-5.04-5.34-6.98-1.2-1.94-1.8-4.08-1.8-6.39s.63-4.32,1.9-6.13c1.27-1.81,3.02-3.25,5.25-4.3,2.23-1.05,4.74-1.57,7.54-1.57,3.54,0,6.37.83,8.49,2.49,2.12,1.66,3.18,3.89,3.18,6.69,0,1.84-.46,3.32-1.38,4.46-.92,1.14-2.12,1.7-3.61,1.7-1.66,0-3-.68-4-2.03.83-.61,1.49-1.42,1.97-2.43.48-1.01.72-2.05.72-3.15,0-1.4-.42-2.51-1.25-3.34-.83-.83-1.97-1.25-3.41-1.25-1.75,0-3.18.62-4.3,1.87-1.11,1.25-1.67,2.83-1.67,4.75,0,1.75.5,3.38,1.51,4.89,1.01,1.51,2.58,3.44,4.72,5.8,1.75,1.88,3.16,3.5,4.23,4.85,1.07,1.36,1.99,2.92,2.75,4.69.76,1.77,1.15,3.68,1.15,5.74,0,2.8-.78,5.33-2.33,7.61-1.55,2.27-3.67,4.07-6.36,5.38-2.69,1.31-5.67,1.97-8.95,1.97-2.75,0-5.18-.48-7.28-1.44Z"/><path fill="#32b3e8" d="m43.95,47.94c-1.29-1.31-1.93-3.28-1.93-5.9,0-1.09.18-2.51.52-4.26l3.93-18.43.52-2.62,1.97-9.05,9.71-1.31-2.23,10.36-.52,2.62-4.2,19.67c-.17.66-.26,1.36-.26,2.1,0,.88.21,1.5.62,1.87.41.37,1.1.56,2.07.56,1.27,0,2.45-.53,3.54-1.61,1.09-1.07,1.88-2.46,2.36-4.16h2.75c-1.62,4.72-3.7,7.92-6.23,9.61-2.54,1.68-5.05,2.52-7.54,2.52-2.1,0-3.79-.66-5.08-1.97Z"/><path fill="#32b3e8" d="m64.44,47.38c-1.79-1.68-2.69-4.32-2.69-7.9,0-3.02.59-6.34,1.77-9.97,1.18-3.63,3.1-6.76,5.77-9.41,2.67-2.64,6.05-3.97,10.16-3.97,4.81,0,7.21,2.1,7.21,6.3,0,2.45-.7,4.7-2.1,6.75-1.4,2.06-3.26,3.71-5.57,4.95-2.32,1.25-4.79,1.96-7.41,2.13-.09,1.31-.13,2.19-.13,2.62,0,2.14.37,3.6,1.11,4.36.74.77,1.94,1.15,3.61,1.15,2.36,0,4.38-.55,6.07-1.64,1.68-1.09,3.53-2.75,5.54-4.98h2.23c-4.85,8.09-10.86,12.13-18.03,12.13-3.24,0-5.75-.84-7.54-2.52Zm12.3-15.97c1.46-1.05,2.64-2.38,3.54-4,.9-1.62,1.34-3.32,1.34-5.12s-.55-2.69-1.64-2.69c-1.57,0-3.12,1.38-4.62,4.13-1.51,2.75-2.59,5.88-3.25,9.38,1.62-.09,3.16-.66,4.62-1.71Z"/><path fill="#32b3e8" d="m94.8,16.72h9.44l-.85,4.07c1.49-1.31,2.83-2.32,4.03-3.02,1.2-.7,2.5-1.05,3.9-1.05s2.5.48,3.31,1.44c.81.96,1.21,2.12,1.21,3.48,0,1.27-.42,2.38-1.25,3.34-.83.96-1.99,1.44-3.48,1.44-.96,0-1.61-.23-1.93-.69-.33-.46-.58-1.13-.75-2-.13-.57-.26-.98-.39-1.25-.13-.26-.37-.39-.72-.39-.92,0-1.69.19-2.33.56-.63.37-1.45,1.02-2.46,1.93l-5.25,24.92h-9.44l6.95-32.79Z"/><path fill="#32b3e8" d="m135.36,47.77c-1.25-1.42-1.87-3.18-1.87-5.28,0-.92.11-1.96.33-3.12.22-1.16.45-2.28.69-3.38.24-1.09.4-1.79.49-2.1.35-1.53.68-3.04.98-4.52.31-1.49.46-2.69.46-3.61,0-2.23-.79-3.34-2.36-3.34-1.14,0-2.14.56-3.02,1.67-.87,1.11-1.57,2.57-2.1,4.36l-4.46,21.05h-9.44l6.95-32.79h9.44l-.72,3.41c2.19-2.45,4.74-3.67,7.67-3.67,2.23,0,4,.61,5.31,1.84,1.31,1.22,1.97,3.08,1.97,5.57,0,1.27-.15,2.68-.46,4.23-.31,1.55-.74,3.44-1.31,5.67-.35,1.36-.67,2.68-.95,3.97-.28,1.29-.43,2.31-.43,3.05,0,.88.2,1.55.59,2.03.39.48,1.07.72,2.03.72,1.31,0,2.36-.47,3.15-1.41.79-.94,1.57-2.39,2.36-4.36h2.75c-1.62,4.81-3.49,8.03-5.61,9.67-2.12,1.64-4.32,2.46-6.59,2.46-2.67,0-4.62-.71-5.87-2.13Z"/><path fill="#32b3e8" d="m154.64,47.94c-1.29-1.31-1.93-3.28-1.93-5.9,0-1.09.18-2.51.52-4.26l3.93-18.43h-2.16l.52-2.62h2.16l1.97-9.05,9.71-1.31-2.23,10.36h3.93l-.52,2.62h-3.93l-4.2,19.67c-.17.66-.26,1.36-.26,2.1,0,.88.21,1.5.62,1.87.41.37,1.1.56,2.07.56,1.27,0,2.45-.53,3.54-1.61,1.09-1.07,1.88-2.46,2.36-4.16h2.75c-1.62,4.72-3.7,7.92-6.23,9.61-2.54,1.68-5.05,2.52-7.54,2.52-2.1,0-3.79-.66-5.08-1.97Z"/><path fill="#32b3e8" d="m174.94,47.35c-1.66-1.71-2.49-4.37-2.49-8,0-3.24.65-6.63,1.93-10.2,1.29-3.56,3.21-6.58,5.77-9.05,2.56-2.47,5.61-3.71,9.15-3.71,1.79,0,3.13.31,4,.92.87.61,1.31,1.42,1.31,2.43v.46l.72-3.48h9.44l-4.72,22.3c-.17.66-.26,1.36-.26,2.1,0,1.88.9,2.82,2.69,2.82,1.22,0,2.28-.57,3.18-1.71.9-1.14,1.61-2.62,2.13-4.46h2.75c-1.62,4.72-3.62,7.92-6,9.61-2.38,1.68-4.78,2.52-7.18,2.52-1.84,0-3.31-.51-4.43-1.54-1.11-1.03-1.78-2.52-2-4.49-1.27,1.79-2.68,3.25-4.23,4.36-1.55,1.11-3.4,1.67-5.54,1.67-2.49,0-4.57-.85-6.23-2.56Zm13.74-5.34c1.07-1.03,1.8-2.44,2.2-4.23l3.15-14.82c0-.57-.22-1.13-.66-1.67-.44-.55-1.11-.82-2.03-.82-1.75,0-3.32,1.02-4.72,3.05-1.4,2.03-2.49,4.48-3.28,7.34-.79,2.86-1.18,5.39-1.18,7.57s.32,3.59.95,4.2c.63.61,1.41.92,2.33.92,1.09,0,2.17-.51,3.25-1.54Z"/><path fill="#32b3e8" d="m211.76,47.94c-1.29-1.31-1.93-3.28-1.93-5.9,0-1.09.18-2.51.52-4.26l4.46-21.05h9.44l-4.72,22.3c-.13.66-.2,1.27-.2,1.84,0,1.79.66,2.69,1.97,2.69,1.22,0,2.27-.51,3.15-1.54.87-1.03,1.57-2.44,2.1-4.23l4.46-21.05h9.44l-4.72,22.3c-.18.66-.26,1.36-.26,2.1,0,.88.21,1.5.62,1.87.42.37,1.1.56,2.07.56,1.22,0,2.28-.52,3.18-1.57.9-1.05,1.61-2.45,2.13-4.2h2.75c-1.62,4.72-3.62,7.92-6,9.61-2.38,1.68-4.78,2.52-7.18,2.52-1.88,0-3.38-.52-4.49-1.57-1.11-1.05-1.78-2.6-2-4.66-1.49,2.4-3.05,4.04-4.69,4.92-1.64.88-3.31,1.31-5.02,1.31-2.1,0-3.79-.66-5.08-1.97Z"/><path fill="#32b3e8" d="m234.71,63.91c-1.55-1.33-2.33-3.03-2.33-5.08,0-1.88.48-3.43,1.44-4.66.96-1.22,2.21-2.2,3.74-2.92,1.53-.72,3.56-1.48,6.1-2.26l7.93-37.45c.87-4.2,2.42-7.1,4.62-8.72,2.21-1.62,4.64-2.43,7.31-2.43,2.05,0,3.86.67,5.41,2,1.55,1.33,2.33,3.03,2.33,5.08,0,1.01-.07,1.9-.2,2.69h-3.08c.09-.96.13-1.55.13-1.77,0-.7-.24-1.25-.72-1.64-.48-.39-1.07-.59-1.77-.59-.92,0-1.81.4-2.69,1.21-.88.81-1.51,2.2-1.9,4.16l-1.11,5.18h4.79l-.46,2.62h-4.85l-7.54,35.41c-.88,4.24-2.38,7.16-4.52,8.76-2.14,1.6-4.55,2.39-7.21,2.39-2.05,0-3.86-.67-5.41-2Zm7.64-8.95l.85-3.8c-2.32.79-4.1,1.69-5.34,2.72-1.25,1.03-1.87,2.37-1.87,4.03,0,.52.26,1.02.79,1.48.52.46,1.14.69,1.84.69,1.75,0,3-1.71,3.74-5.12Z"/><path fill="#32b3e8" d="m267.86,47.38c-1.79-1.68-2.69-4.32-2.69-7.9,0-3.02.59-6.34,1.77-9.97,1.18-3.63,3.1-6.76,5.77-9.41,2.67-2.64,6.05-3.97,10.16-3.97,4.81,0,7.21,2.1,7.21,6.3,0,2.45-.7,4.7-2.1,6.75-1.4,2.06-3.26,3.71-5.57,4.95-2.32,1.25-4.79,1.96-7.41,2.13-.09.96-.13,1.62-.13,1.97,0,3.63,1.35,5.44,4.07,5.44,1.22,0,2.54-.33,3.93-.98,1.4-.66,2.67-1.49,3.8-2.49-1.18,6.47-4.96,9.71-11.35,9.71-3.19,0-5.68-.84-7.48-2.52Zm12.3-15.9c1.46-1.05,2.64-2.39,3.54-4.03.9-1.64,1.34-3.36,1.34-5.15s-.55-2.69-1.64-2.69c-1.53,0-3.05,1.39-4.56,4.16-1.51,2.78-2.63,5.89-3.38,9.34,1.66-.04,3.22-.59,4.69-1.64Z"/></g><g><polygon fill="#ffffff" points="3.79 24.3 11.05 29.13 17.88 23.72 15.54 32.11 22.79 36.93 14.09 37.29 11.74 45.69 8.71 37.52 0 37.88 6.83 32.47 3.79 24.3"/><path fill="#ffffff" d="m152.69,7.57l-8.84-1.03c-1.47-.15-2.94-.38-4.42-.47l-4.44-.23-4.43-.22c-1.48-.07-2.95-.18-4.44-.13l-8.87.1c-11.82.47-23.58,1.84-35.15,4.14-11.56,2.35-22.92,5.63-33.96,9.69-2.77.98-5.48,2.15-8.21,3.21-2.7,1.16-5.4,2.31-8.06,3.56l-3.97,1.9c-1.31.65-2.6,1.34-3.9,2.01-2.59,1.35-5.12,2.81-7.53,4.32l-2.64-4.24c2.67-1.55,5.34-2.95,8.05-4.26,1.36-.64,2.71-1.31,4.08-1.92l4.13-1.8c2.76-1.18,5.55-2.25,8.34-3.34,2.83-.99,5.62-2.07,8.47-2.97,11.36-3.73,22.98-6.65,34.75-8.61,11.78-1.92,23.69-2.87,35.59-2.93l8.92.22c1.49,0,2.97.16,4.45.28l4.44.38,4.44.38c1.48.14,2.94.42,4.41.63l8.8,1.34Z"/></g></g></g></svg>
