<?xml version="1.0" encoding="UTF-8"?><svg id="Ebene_2" xmlns="http://www.w3.org/2000/svg" viewBox="0 0 601.15 82.82"><g id="Logo_Positiv"><g id="Registration"><path fill="#ffffff" d="m205.1,58.12c0-1.21.18-2.59.54-4.16.36-1.57.87-3.58,1.52-6.06.77-2.58,1.34-4.78,1.73-6.59.38-1.81.58-3.43.58-4.86,0-3.73-1.65-5.6-4.94-5.6-.88,0-1.79.11-2.72.33l-6.59,31.06h-11.86l11.2-52.39,12.19-1.65-4.04,19.03h.66c2.14,0,4.12-.74,5.93-2.22s3.23-3.34,4.24-5.56c1.02-2.22,1.52-4.41,1.52-6.55,0-2.53-.76-4.6-2.27-6.22-1.51-1.62-3.78-2.43-6.8-2.43-4.45,0-8.35.8-11.7,2.39-3.35,1.59-5.95,3.9-7.79,6.92-1.84,3.02-2.76,6.59-2.76,10.71,0,2.03.19,3.45.58,4.24.38.8.58,1.25.58,1.36-2.97,0-5.18-.62-6.63-1.85-1.46-1.24-2.18-3.28-2.18-6.14,0-3.51,1.44-6.93,4.33-10.26,2.88-3.32,6.58-6.01,11.08-8.07s9.01-3.09,13.51-3.09c4.12,0,7.58.61,10.38,1.81,2.8,1.21,4.89,2.82,6.26,4.82,1.37,2.01,2.06,4.19,2.06,6.55,0,2.58-.8,5.16-2.39,7.74-1.59,2.58-3.76,4.7-6.51,6.34,2.09.61,3.56,1.61,4.41,3.01.85,1.4,1.28,3.14,1.28,5.23,0,1.59-.19,3.28-.58,5.07-.38,1.79-.93,4-1.65,6.63-.44,1.7-.85,3.38-1.24,5.03-.38,1.65-.58,3.02-.58,4.12,0,1.26.29,2.39.87,3.38s1.36,1.68,2.35,2.06c-3.35.93-6.07,1.4-8.16,1.4-4.28,0-6.43-1.84-6.43-5.52h.02Z"/><path fill="#ffffff" d="m230.64,59.56c-2.25-2.11-3.38-5.42-3.38-9.93,0-3.79.74-7.96,2.22-12.52s3.9-8.5,7.25-11.82,7.61-4.98,12.77-4.98c6.04,0,9.06,2.64,9.06,7.91,0,3.08-.88,5.9-2.64,8.49-1.76,2.58-4.09,4.65-7,6.22s-6.01,2.46-9.31,2.68c-.11,1.65-.17,2.75-.17,3.3,0,2.69.47,4.52,1.4,5.48.93.96,2.44,1.44,4.53,1.44,2.97,0,5.51-.69,7.62-2.06s4.43-3.46,6.96-6.26h2.8c-6.1,10.16-13.65,15.24-22.65,15.24-4.07,0-7.22-1.06-9.47-3.17v-.02Zm15.46-20.06c1.84-1.32,3.32-2.99,4.45-5.03,1.13-2.03,1.69-4.17,1.69-6.43s-.69-3.38-2.06-3.38c-1.98,0-3.91,1.73-5.81,5.19-1.89,3.46-3.25,7.39-4.08,11.78,2.03-.11,3.97-.82,5.81-2.14h0Z"/><path fill="#ffffff" d="m271.17,80.77c-1.76-1.37-2.64-3.35-2.64-5.93,0-3.13,1.26-5.64,3.79-7.54,2.53-1.89,5.74-3.47,9.64-4.74l.99-4.37c-2.8,3.02-6.1,4.53-9.89,4.53-3.13,0-5.74-1.07-7.83-3.21-2.09-2.14-3.13-5.49-3.13-10.05,0-4.06.81-8.33,2.43-12.81s4.04-8.26,7.25-11.37c3.21-3.1,7.04-4.65,11.49-4.65,2.25,0,3.93.38,5.03,1.15s1.65,1.79,1.65,3.05v.49l.91-4.28h11.86l-8.16,38.22c2.64-.88,4.75-2.2,6.34-3.95,1.59-1.76,2.94-4.37,4.04-7.83h3.46c-1.48,4.89-3.49,8.47-6.01,10.75-2.53,2.28-5.38,3.83-8.57,4.65l-1.24,5.93c-1.1,5.33-2.99,8.99-5.68,11-2.69,2-5.74,3.01-9.14,3.01-2.64,0-4.83-.69-6.59-2.06h0Zm7.41-6.25c.88-1.26,1.57-3.08,2.06-5.44l.49-2.39c-5.38,1.98-8.07,4.31-8.07,7,0,.71.25,1.35.74,1.89.49.55,1.18.82,2.06.82.93,0,1.84-.63,2.72-1.89h0Zm3.71-21.49c1.32-1.15,2.22-2.72,2.72-4.7l4.2-19.52c0-.66-.28-1.33-.82-2.02-.55-.69-1.4-1.03-2.55-1.03-2.2,0-4.17,1.28-5.93,3.83-1.76,2.55-3.13,5.63-4.12,9.23s-1.48,6.77-1.48,9.51.4,4.5,1.19,5.27c.8.77,1.77,1.15,2.92,1.15,1.26,0,2.55-.58,3.87-1.73h0Z"/><path fill="#ffffff" d="m309.92,60.26c-1.62-1.65-2.43-4.12-2.43-7.41,0-1.37.22-3.16.66-5.35l5.6-26.44h11.86l-5.93,28.01c-.22.82-.33,1.7-.33,2.64,0,1.1.26,1.88.78,2.35s1.39.7,2.59.7c1.59,0,3.08-.67,4.45-2.02,1.37-1.35,2.36-3.09,2.97-5.23h3.46c-2.03,5.93-4.64,9.96-7.83,12.07-3.19,2.12-6.34,3.17-9.47,3.17-2.64,0-4.77-.82-6.38-2.47v-.02Zm7.37-45.56c-1.26-1.26-1.89-2.8-1.89-4.61s.63-3.36,1.89-4.65,2.8-1.94,4.61-1.94,3.36.65,4.65,1.94,1.94,2.84,1.94,4.65-.65,3.35-1.94,4.61c-1.29,1.26-2.84,1.89-4.65,1.89s-3.35-.63-4.61-1.89Z"/><path fill="#ffffff" d="m336.08,61.21c-1.81-1.02-3.16-2.33-4.04-3.95-.88-1.62-1.32-3.31-1.32-5.07s.43-3.39,1.28-4.74c.85-1.35,1.88-2.32,3.09-2.92,2.14-3.84,4.01-7.73,5.6-11.66s3.1-8.17,4.53-12.73l12.19-1.65c.27,7.03.74,14.64,1.4,22.82.27,3.3.41,5.68.41,7.17,0,1.26-.11,2.31-.33,3.13,2.58-1.48,4.56-2.85,5.93-4.12h3.46c-3.52,4.07-7.72,7.5-12.6,10.3-1.59,1.7-3.56,2.95-5.89,3.75-2.34.8-4.68,1.19-7.04,1.19-2.64,0-4.86-.51-6.67-1.52h0Zm9.14-6.8c1.37-1.21,2.06-3.16,2.06-5.85,0-1.65-.17-3.95-.49-6.92-.55-6.26-.91-10.46-1.07-12.6-1.32,4.34-3.54,9.53-6.67,15.57,1.26.66,1.89,1.62,1.89,2.88,0,1.04-.34,1.98-1.03,2.8-.69.82-1.55,1.24-2.6,1.24-1.15,0-1.89-.36-2.22-1.07,0,1.98.4,3.43,1.19,4.37.8.93,2.07,1.4,3.83,1.4,2.03,0,3.73-.6,5.11-1.81h0Z"/><path fill="#ffffff" d="m369.81,60.26c-1.62-1.65-2.43-4.12-2.43-7.41,0-1.37.22-3.16.66-5.35l4.94-23.15h-2.72l.66-3.3h2.72l2.47-11.37,12.19-1.65-2.8,13.02h4.94l-.66,3.3h-4.94l-5.27,24.71c-.22.82-.33,1.7-.33,2.64,0,1.1.26,1.88.78,2.35s1.39.7,2.59.7c1.59,0,3.08-.67,4.45-2.02,1.37-1.35,2.36-3.09,2.97-5.23h3.46c-2.03,5.93-4.64,9.96-7.83,12.07-3.19,2.12-6.34,3.17-9.47,3.17-2.64,0-4.77-.82-6.38-2.47h0Z"/><path fill="#ffffff" d="m398.85,21.05h11.86l-1.07,5.11c1.87-1.65,3.55-2.91,5.06-3.79s3.14-1.32,4.9-1.32,3.14.61,4.16,1.81c1.02,1.21,1.52,2.66,1.52,4.37,0,1.59-.52,2.99-1.57,4.2-1.04,1.21-2.5,1.81-4.37,1.81-1.21,0-2.02-.29-2.43-.87s-.73-1.41-.95-2.51c-.16-.71-.33-1.24-.49-1.57-.16-.33-.47-.49-.91-.49-1.15,0-2.13.23-2.93.7s-1.83,1.28-3.09,2.43l-6.59,31.3h-11.86l8.73-41.19h.03Z"/><path fill="#ffffff" d="m429.5,59.52c-2.09-2.14-3.13-5.49-3.13-10.05,0-4.06.81-8.33,2.43-12.81s4.04-8.26,7.25-11.37c3.21-3.1,7.04-4.65,11.49-4.65,2.25,0,3.93.38,5.03,1.15s1.65,1.79,1.65,3.05v.58l.91-4.37h11.86l-5.93,28.01c-.22.82-.33,1.7-.33,2.64,0,2.36,1.13,3.54,3.38,3.54,1.54,0,2.87-.71,3.99-2.14,1.13-1.43,2.02-3.3,2.68-5.6h3.46c-2.03,5.93-4.54,9.96-7.54,12.07-2.99,2.12-6,3.17-9.02,3.17-2.31,0-4.16-.64-5.56-1.94-1.4-1.29-2.24-3.17-2.51-5.64-1.59,2.25-3.37,4.08-5.31,5.48-1.95,1.4-4.27,2.1-6.96,2.1-3.13,0-5.74-1.07-7.83-3.21h0Zm17.26-6.72c1.34-1.29,2.26-3.06,2.76-5.31l3.95-18.62c0-.71-.27-1.41-.82-2.1-.55-.69-1.4-1.03-2.55-1.03-2.2,0-4.17,1.28-5.93,3.83s-3.13,5.63-4.12,9.23-1.48,6.77-1.48,9.51.4,4.5,1.19,5.27,1.77,1.15,2.92,1.15c1.37,0,2.73-.64,4.08-1.94h0Z"/><path fill="#ffffff" d="m475.75,60.26c-1.62-1.65-2.43-4.12-2.43-7.41,0-1.37.22-3.16.66-5.35l4.94-23.15h-2.72l.66-3.3h2.72l2.47-11.37,12.19-1.65-2.8,13.02h4.94l-.66,3.3h-4.94l-5.27,24.71c-.22.82-.33,1.7-.33,2.64,0,1.1.26,1.88.78,2.35s1.39.7,2.6.7c1.59,0,3.08-.67,4.45-2.02,1.37-1.35,2.36-3.09,2.97-5.23h3.46c-2.03,5.93-4.64,9.96-7.83,12.07-3.19,2.12-6.34,3.17-9.47,3.17-2.64,0-4.76-.82-6.38-2.47h0Z"/><path fill="#ffffff" d="m500.96,60.26c-1.62-1.65-2.43-4.12-2.43-7.41,0-1.37.22-3.16.66-5.35l5.6-26.44h11.86l-5.93,28.01c-.22.82-.33,1.7-.33,2.64,0,1.1.26,1.88.78,2.35s1.39.7,2.6.7c1.59,0,3.08-.67,4.45-2.02,1.37-1.35,2.36-3.09,2.97-5.23h3.46c-2.03,5.93-4.64,9.96-7.83,12.07-3.19,2.12-6.34,3.17-9.47,3.17-2.64,0-4.76-.82-6.38-2.47v-.02Zm7.36-45.56c-1.26-1.26-1.89-2.8-1.89-4.61s.63-3.36,1.89-4.65,2.8-1.94,4.61-1.94,3.36.65,4.65,1.94c1.29,1.29,1.94,2.84,1.94,4.65s-.65,3.35-1.94,4.61c-1.29,1.26-2.84,1.89-4.65,1.89s-3.35-.63-4.61-1.89Z"/><path fill="#ffffff" d="m526.79,59.44c-2.36-2.09-3.54-5.38-3.54-9.89,0-3.73.77-7.88,2.31-12.44s4.01-8.5,7.41-11.82c3.41-3.32,7.69-4.98,12.85-4.98,7.03,0,10.54,4.39,10.54,13.18v.08c.16.06.47.08.91.08,1.81,0,3.9-.48,6.26-1.44s4.5-2.13,6.43-3.5l.74,2.22c-1.59,1.7-3.67,3.14-6.22,4.33-2.55,1.18-5.34,2.02-8.36,2.51-.44,5-1.56,9.36-3.38,13.1-1.81,3.74-4.15,6.62-7,8.65-2.86,2.03-5.96,3.05-9.31,3.05-4.07,0-7.28-1.04-9.64-3.13h0Zm16.89-6.55c1.32-1.51,2.47-3.57,3.46-6.18.99-2.61,1.7-5.51,2.14-8.69-1.48-.33-2.22-1.48-2.22-3.46,0-2.25.85-3.73,2.55-4.45-.11-1.81-.38-3.06-.82-3.75s-1.21-1.03-2.31-1.03c-1.81,0-3.57,1.32-5.27,3.95-1.7,2.64-3.08,5.79-4.12,9.47s-1.57,6.92-1.57,9.72c0,2.64.3,4.41.91,5.31.6.91,1.7,1.36,3.29,1.36,1.32,0,2.64-.75,3.95-2.27v.02Z"/><path fill="#ffffff" d="m585.77,60.1c-1.32-1.76-1.98-3.98-1.98-6.67,0-1.15.14-2.46.41-3.91.27-1.45.56-2.87.86-4.24s.51-2.25.62-2.64c.44-1.92.85-3.82,1.24-5.68.38-1.87.58-3.38.58-4.53,0-2.8-.99-4.2-2.97-4.2-1.43,0-2.69.7-3.79,2.1s-1.98,3.23-2.64,5.48l-5.6,26.44h-11.86l8.73-41.19h11.86l-.91,4.28c2.75-3.08,5.96-4.61,9.64-4.61,2.8,0,5.03.77,6.67,2.31,1.65,1.54,2.47,3.87,2.47,7,0,1.59-.19,3.36-.58,5.31s-.94,4.33-1.65,7.13c-.44,1.7-.84,3.37-1.19,4.98-.36,1.62-.54,2.9-.54,3.83,0,1.1.25,1.95.74,2.55.49.61,1.34.91,2.55.91,1.32,0,2.22-.16,2.72-.49-.33,2.8-1.33,4.92-3.01,6.34-1.68,1.43-3.69,2.14-6.06,2.14-2.91,0-5.03-.88-6.34-2.64h.03Z"/></g><g id="Star"><g><path fill="#32b3e8" d="m14.31,61.87c-2.64-1.21-4.67-2.9-6.1-5.07s-2.14-4.68-2.14-7.54c0-2.42.51-4.61,1.52-6.59,1.02-1.98,2.39-3.54,4.12-4.7,1.73-1.15,3.64-1.73,5.73-1.73,1.92,0,3.54.48,4.86,1.44s-2.66,4.75-4.37,6.26c-1.7,1.51-2.55,3.56-2.55,6.14,0,2.36.71,4.26,2.14,5.68,1.43,1.43,3.32,2.14,5.68,2.14,2.91,0,5.31-.97,7.21-2.92,1.89-1.95,2.84-4.41,2.84-7.37,0-2.58-.71-5.03-2.14-7.33-1.43-2.31-3.57-5.11-6.43-8.4-2.97-3.4-5.2-6.33-6.71-8.77s-2.27-5.12-2.27-8.03.8-5.42,2.39-7.7,3.79-4.08,6.59-5.4,5.96-1.98,9.47-1.98c4.45,0,8,1.04,10.67,3.13,2.66,2.09,4,4.89,4,8.4,0,2.31-.58,4.17-1.73,5.6s-2.66,2.14-4.53,2.14c-2.09,0-3.76-.85-5.03-2.55,1.04-.77,1.87-1.78,2.47-3.05.6-1.26.91-2.58.91-3.95,0-1.76-.52-3.16-1.57-4.2-1.04-1.04-2.47-1.57-4.28-1.57-2.2,0-4,.78-5.4,2.35s-2.1,3.56-2.1,5.97c0,2.2.63,4.24,1.89,6.14,1.26,1.89,3.24,4.33,5.93,7.29,2.2,2.36,3.97,4.39,5.31,6.1,1.34,1.7,2.5,3.67,3.46,5.89s1.44,4.63,1.44,7.21c0,3.52-.98,6.7-2.92,9.56-1.95,2.86-4.61,5.11-7.99,6.75-3.38,1.65-7.13,2.47-11.24,2.47-3.46,0-6.51-.61-9.14-1.81h0Z"/><path fill="#32b3e8" d="m55.21,60.22c-1.62-1.65-2.43-4.12-2.43-7.41,0-1.37.22-3.16.66-5.35l8.07-37.81,12.19-1.65-8.73,41.03c-.22.82-.33,1.7-.33,2.64,0,1.1.26,1.88.78,2.35s1.39.7,2.59.7c1.59,0,3.08-.67,4.45-2.02,1.37-1.35,2.36-3.09,2.97-5.23h3.46c-2.03,5.93-4.64,9.96-7.83,12.07-3.19,2.12-6.34,3.17-9.47,3.17-2.64,0-4.77-.82-6.38-2.47v-.02Z"/><path fill="#32b3e8" d="m80.71,59.48c-2.09-2.14-3.13-5.49-3.13-10.05,0-4.06.81-8.33,2.43-12.81s4.04-8.26,7.25-11.37c3.21-3.1,7.04-4.65,11.49-4.65,2.25,0,3.93.38,5.03,1.15s1.65,1.79,1.65,3.05v.58l.91-4.37h11.86l-5.93,28.01c-.22.82-.33,1.7-.33,2.64,0,2.36,1.13,3.54,3.38,3.54,1.54,0,2.87-.71,4-2.14,1.13-1.43,2.02-3.3,2.68-5.6h3.46c-2.03,5.93-4.55,9.96-7.54,12.07-2.99,2.12-6,3.17-9.02,3.17-2.31,0-4.16-.64-5.56-1.94-1.4-1.29-2.24-3.17-2.51-5.64-1.59,2.25-3.36,4.08-5.31,5.48-1.95,1.4-4.27,2.1-6.96,2.1-3.13,0-5.74-1.07-7.83-3.21h-.02Zm17.26-6.72c1.35-1.29,2.27-3.06,2.76-5.31l3.95-18.62c0-.71-.28-1.41-.82-2.1-.55-.69-1.4-1.03-2.55-1.03-2.2,0-4.17,1.28-5.93,3.83s-3.13,5.63-4.12,9.23c-.99,3.6-1.48,6.77-1.48,9.51s.4,4.5,1.19,5.27c.8.77,1.77,1.15,2.92,1.15,1.37,0,2.73-.64,4.08-1.94h0Z"/><path fill="#32b3e8" d="m130.8,21.01h11.86l-1.07,5.11c1.87-1.65,3.56-2.91,5.07-3.79,1.51-.88,3.14-1.32,4.9-1.32s3.14.61,4.16,1.81c1.02,1.21,1.52,2.66,1.52,4.37,0,1.59-.52,2.99-1.57,4.2-1.04,1.21-2.5,1.81-4.37,1.81-1.21,0-2.02-.29-2.43-.87-.41-.58-.73-1.41-.95-2.51-.17-.71-.33-1.24-.49-1.57-.16-.33-.47-.49-.91-.49-1.15,0-2.13.23-2.92.7-.8.47-1.83,1.28-3.09,2.43l-6.59,31.3h-11.86l8.73-41.19h0Z"/></g><g id="Sternschnuppe"><polygon fill="#ffffff" points="4.77 30.45 13.89 36.51 22.47 29.71 19.52 40.25 28.64 46.31 17.7 46.77 14.75 57.31 10.94 47.05 0 47.51 8.58 40.71 4.77 30.45"/><path fill="#ffffff" d="m157.24,11.26l-9.01-.57-4.5-.28-2.25-.13-2.26-.03c-6.02-.05-12.03-.3-18.03.06-12.01.28-23.97,1.67-35.71,3.98-11.73,2.31-23.23,5.75-34.13,10.52l-4.08,1.81-3.99,1.99-1.99,1-1.95,1.08c-1.29.73-2.6,1.43-3.88,2.18-5.15,3-10,6.35-15.11,9.73l-2.64-4.24c5.05-3.09,10.23-6.41,15.6-9.29,1.34-.73,2.71-1.4,4.07-2.11l2.04-1.04,2.08-.96,4.16-1.9,4.24-1.71c11.33-4.5,23.16-7.59,35.12-9.52,11.96-1.92,24.06-2.9,36.13-2.77,6.04-.15,12.06.31,18.08.57l2.26.11,2.25.21,4.5.44,8.99.88h0Z"/></g></g></g></svg>
